<svg width="20" height="15" viewBox="0 0 20 15" fill="none" xmlns="http://www.w3.org/2000/svg">
<path d="M18.9988 1.71661e-05H0.998846C0.816605 0.000588417 0.63797 0.0508518 0.48217 0.145395C0.32637 0.239939 0.199305 0.375182 0.114651 0.53657C0.0299969 0.697957 -0.00903893 0.879377 0.00174332 1.0613C0.0125256 1.24322 0.0727196 1.41876 0.175846 1.56902L9.17585 14.569C9.54885 15.108 10.4468 15.108 10.8208 14.569L19.8208 1.56902C19.925 1.41907 19.9861 1.24345 19.9975 1.06122C20.0089 0.878996 19.9701 0.697139 19.8853 0.53541C19.8006 0.373681 19.6732 0.238263 19.5169 0.143873C19.3606 0.0494833 19.1814 -0.000270844 18.9988 1.71661e-05ZM9.99885 12.243L2.90685 2.00002H17.0908L9.99885 12.243Z" fill="black"/>
</svg>
