<svg width="19" height="19" viewBox="0 0 19 19" fill="none" xmlns="http://www.w3.org/2000/svg">
<g clip-path="url(#clip0_39_3585)">
<path fill-rule="evenodd" clip-rule="evenodd" d="M17.8125 2.375C17.8125 2.06006 17.6874 1.75801 17.4647 1.53531C17.242 1.31261 16.9399 1.1875 16.625 1.1875H2.375C2.06006 1.1875 1.75801 1.31261 1.53531 1.53531C1.31261 1.75801 1.1875 2.06006 1.1875 2.375V16.625C1.1875 16.9399 1.31261 17.242 1.53531 17.4647C1.75801 17.6874 2.06006 17.8125 2.375 17.8125H16.625C16.9399 17.8125 17.242 17.6874 17.4647 17.4647C17.6874 17.242 17.8125 16.9399 17.8125 16.625V2.375ZM0 2.375C0 1.74511 0.250223 1.14102 0.695621 0.695621C1.14102 0.250223 1.74511 0 2.375 0L16.625 0C17.2549 0 17.859 0.250223 18.3044 0.695621C18.7498 1.14102 19 1.74511 19 2.375V16.625C19 17.2549 18.7498 17.859 18.3044 18.3044C17.859 18.7498 17.2549 19 16.625 19H2.375C1.74511 19 1.14102 18.7498 0.695621 18.3044C0.250223 17.859 0 17.2549 0 16.625V2.375ZM10.0938 13.6562C10.0938 13.8137 10.0312 13.9647 9.91985 14.0761C9.8085 14.1874 9.65747 14.25 9.5 14.25C9.34253 14.25 9.19151 14.1874 9.08016 14.0761C8.96881 13.9647 8.90625 13.8137 8.90625 13.6562V6.77706L6.35787 9.32662C6.24638 9.43812 6.09517 9.50075 5.9375 9.50075C5.77983 9.50075 5.62862 9.43812 5.51713 9.32662C5.40563 9.21513 5.343 9.06392 5.343 8.90625C5.343 8.74858 5.40563 8.59737 5.51713 8.48588L9.07963 4.92338C9.13478 4.86808 9.2003 4.82421 9.27244 4.79428C9.34457 4.76435 9.4219 4.74894 9.5 4.74894C9.5781 4.74894 9.65543 4.76435 9.72756 4.79428C9.7997 4.82421 9.86522 4.86808 9.92037 4.92338L13.4829 8.48588C13.5944 8.59737 13.657 8.74858 13.657 8.90625C13.657 9.06392 13.5944 9.21513 13.4829 9.32662C13.3714 9.43812 13.2202 9.50075 13.0625 9.50075C12.9048 9.50075 12.7536 9.43812 12.6421 9.32662L10.0938 6.77706V13.6562Z" fill="black"/>
</g>
<defs>
<clipPath id="clip0_39_3585">
<rect width="19" height="19" fill="white"/>
</clipPath>
</defs>
</svg>
