<svg width="19" height="19" viewBox="0 0 19 19" fill="none" xmlns="http://www.w3.org/2000/svg">
<g clip-path="url(#clip0_39_3587)">
<path fill-rule="evenodd" clip-rule="evenodd" d="M17.8125 2.375C17.8125 2.06006 17.6874 1.75801 17.4647 1.53531C17.242 1.31261 16.9399 1.1875 16.625 1.1875H2.375C2.06006 1.1875 1.75801 1.31261 1.53531 1.53531C1.31261 1.75801 1.1875 2.06006 1.1875 2.375V16.625C1.1875 16.9399 1.31261 17.242 1.53531 17.4647C1.75801 17.6874 2.06006 17.8125 2.375 17.8125H16.625C16.9399 17.8125 17.242 17.6874 17.4647 17.4647C17.6874 17.242 17.8125 16.9399 17.8125 16.625V2.375ZM0 2.375C0 1.74511 0.250223 1.14102 0.695621 0.695621C1.14102 0.250223 1.74511 0 2.375 0L16.625 0C17.2549 0 17.859 0.250223 18.3044 0.695621C18.7498 1.14102 19 1.74511 19 2.375V16.625C19 17.2549 18.7498 17.859 18.3044 18.3044C17.859 18.7498 17.2549 19 16.625 19H2.375C1.74511 19 1.14102 18.7498 0.695621 18.3044C0.250223 17.859 0 17.2549 0 16.625V2.375ZM10.0938 5.34375C10.0938 5.18628 10.0312 5.03525 9.91985 4.92391C9.8085 4.81256 9.65747 4.75 9.5 4.75C9.34253 4.75 9.19151 4.81256 9.08016 4.92391C8.96881 5.03525 8.90625 5.18628 8.90625 5.34375V12.2229L6.35787 9.67338C6.24638 9.56188 6.09517 9.49925 5.9375 9.49925C5.77983 9.49925 5.62862 9.56188 5.51713 9.67338C5.40563 9.78487 5.343 9.93608 5.343 10.0938C5.343 10.2514 5.40563 10.4026 5.51713 10.5141L9.07963 14.0766C9.13478 14.1319 9.2003 14.1758 9.27244 14.2057C9.34457 14.2357 9.4219 14.2511 9.5 14.2511C9.5781 14.2511 9.65543 14.2357 9.72756 14.2057C9.7997 14.1758 9.86522 14.1319 9.92037 14.0766L13.4829 10.5141C13.5944 10.4026 13.657 10.2514 13.657 10.0938C13.657 9.93608 13.5944 9.78487 13.4829 9.67338C13.3714 9.56188 13.2202 9.49925 13.0625 9.49925C12.9048 9.49925 12.7536 9.56188 12.6421 9.67338L10.0938 12.2229V5.34375Z" fill="black"/>
</g>
<defs>
<clipPath id="clip0_39_3587">
<rect width="19" height="19" fill="white"/>
</clipPath>
</defs>
</svg>
