<svg width="24" height="24" viewBox="0 0 24 24" fill="none" xmlns="http://www.w3.org/2000/svg">
<path d="M2 6V5C2 3.34315 3.34315 2 5 2H9.6C10.9255 2 12 3.07452 12 4.4C12 5.28366 12.7163 6 13.6 6H19C20.6569 6 22 7.34315 22 9V19C22 20.6569 20.6569 22 19 22H5C3.34315 22 2 20.6569 2 19V6Z" stroke="black" stroke-width="2" stroke-linejoin="round"/>
<path d="M2 14C2 12.3431 3.34315 11 5 11H19C20.6569 11 22 12.3431 22 14V19C22 20.6569 20.6569 22 19 22H5C3.34315 22 2 20.6569 2 19V14Z" stroke="black" stroke-width="2"/>
</svg>
